HIERARCHY
ROOT hip
{
  OFFSET 64.3505 84.8924 107.279
  CHANNELS 6 Xposition Yposition Zposition Zrotation Xrotation Yrotation
  JOINT abdomen
  {
    OFFSET 0 20.6881 -0.73152
    CHANNELS 3 Zrotation Xrotation Yrotation
    JOINT chest
    {
      OFFSET 0 11.7043 -0.48768
      CHANNELS 3 Zrotation Xrotation Yrotation
      JOINT neck
      {
        OFFSET 0 22.1894 -2.19456
        CHANNELS 3 Zrotation Xrotation Yrotation
        JOINT head
        {
          OFFSET -0.24384 7.07133 1.2192
          CHANNELS 3 Zrotation Xrotation Yrotation
          JOINT leftEye
          {
            OFFSET 4.14528 8.04674 8.04672
            CHANNELS 3 Zrotation Xrotation Yrotation
            End Site
            {
              OFFSET 1 0 0
            }
          }
          JOINT rightEye
          {
            OFFSET -3.6576 8.04674 8.04672
            CHANNELS 3 Zrotation Xrotation Yrotation
            End Site
            {
              OFFSET 1 0 0
            }
          }
        }
      }
      JOINT rCollar
      {
        OFFSET -2.68224 19.2634 -4.8768
        CHANNELS 3 Zrotation Xrotation Yrotation
        JOINT rShldr
        {
          OFFSET -8.77824 -1.95073 1.46304
          CHANNELS 3 Zrotation Xrotation Yrotation
          JOINT rForeArm
          {
            OFFSET -28.1742 -1.7115 0.48768
            CHANNELS 3 Zrotation Xrotation Yrotation
            JOINT rHand
            {
              OFFSET -22.5879 0.773209 7.07136
              CHANNELS 3 Zrotation Xrotation Yrotation
              JOINT rThumb1
              {
                OFFSET -1.2192 -0.487915 3.41376
                CHANNELS 3 Zrotation Xrotation Yrotation
                JOINT rThumb2
                {
                  OFFSET -3.37035 -0.52449 3.41376
                  CHANNELS 3 Zrotation Xrotation Yrotation
                  End Site
                  {
                    OFFSET -1.78271 -1.18214 1.43049
                  }
                }
              }
              JOINT rIndex1
              {
                OFFSET -7.75947 0.938293 5.60832
                CHANNELS 3 Zrotation Xrotation Yrotation
                JOINT rIndex2
                {
                  OFFSET -2.54057 -0.884171 1.56538
                  CHANNELS 3 Zrotation Xrotation Yrotation
                  End Site
                  {
                    OFFSET -1.62519 -0.234802 1.16502
                  }
                }
              }
              JOINT rMid1
              {
                OFFSET -8.24714 1.18213 3.41376
                CHANNELS 3 Zrotation Xrotation Yrotation
                JOINT rMid2
                {
                  OFFSET -3.10165 -0.590103 1.0647
                  CHANNELS 3 Zrotation Xrotation Yrotation
                  End Site
                  {
                    OFFSET -2.48547 -0.328903 0.83742
                  }
                }
              }
              JOINT rRing1
              {
                OFFSET -8.82822 0.546677 1.51678
                CHANNELS 3 Zrotation Xrotation Yrotation
                JOINT rRing2
                {
                  OFFSET -2.60934 -0.819778 -0.0198488
                  CHANNELS 3 Zrotation Xrotation Yrotation
                  End Site
                  {
                    OFFSET -2.33842 -0.294052 0.168128
                  }
                }
              }
              JOINT rPinky1
              {
                OFFSET -8.27202 -0.0477905 -0.4584
                CHANNELS 3 Zrotation Xrotation Yrotation
                JOINT rPinky2
                {
                  OFFSET -1.82734 -0.647385 -0.700984
                  CHANNELS 3 Zrotation Xrotation Yrotation
                  End Site
                  {
                    OFFSET -1.69225 -0.51767 -0.607171
                  }
                }
              }
            }
          }
        }
      }
      JOINT lCollar
      {
        OFFSET 2.68224 19.2634 -4.8768
        CHANNELS 3 Zrotation Xrotation Yrotation
        JOINT lShldr
        {
          OFFSET 8.77824 -1.95073 1.46304
          CHANNELS 3 Zrotation Xrotation Yrotation
          JOINT lForeArm
          {
            OFFSET 28.1742 -1.7115 0.48768
            CHANNELS 3 Zrotation Xrotation Yrotation
            JOINT lHand
            {
              OFFSET 22.5879 0.773209 7.07136
              CHANNELS 3 Zrotation Xrotation Yrotation
              JOINT lThumb1
              {
                OFFSET 1.2192 -0.487915 3.41376
                CHANNELS 3 Zrotation Xrotation Yrotation
                JOINT lThumb2
                {
                  OFFSET 3.37035 -0.52449 3.41376
                  CHANNELS 3 Zrotation Xrotation Yrotation
                  End Site
                  {
                    OFFSET 1.78271 -1.18214 1.43049
                  }
                }
              }
              JOINT lIndex1
              {
                OFFSET 7.75947 0.938293 5.60832
                CHANNELS 3 Zrotation Xrotation Yrotation
                JOINT lIndex2
                {
                  OFFSET 2.54057 -0.884171 1.56538
                  CHANNELS 3 Zrotation Xrotation Yrotation
                  End Site
                  {
                    OFFSET 1.62519 -0.234802 1.16502
                  }
                }
              }
              JOINT lMid1
              {
                OFFSET 8.24714 1.18213 3.41376
                CHANNELS 3 Zrotation Xrotation Yrotation
                JOINT lMid2
                {
                  OFFSET 3.10165 -0.590103 1.0647
                  CHANNELS 3 Zrotation Xrotation Yrotation
                  End Site
                  {
                    OFFSET 2.48547 -0.328903 0.83742
                  }
                }
              }
              JOINT lRing1
              {
                OFFSET 8.82822 0.546677 1.51678
                CHANNELS 3 Zrotation Xrotation Yrotation
                JOINT lRing2
                {
                  OFFSET 2.60934 -0.819778 -0.0198488
                  CHANNELS 3 Zrotation Xrotation Yrotation
                  End Site
                  {
                    OFFSET 2.33842 -0.294052 0.168128
                  }
                }
              }
              JOINT lPinky1
              {
                OFFSET 8.27202 -0.0477905 -0.4584
                CHANNELS 3 Zrotation Xrotation Yrotation
                JOINT lPinky2
                {
                  OFFSET 1.82734 -0.647385 -0.700984
                  CHANNELS 3 Zrotation Xrotation Yrotation
                  End Site
                  {
                    OFFSET 1.69225 -0.51767 -0.607171
                  }
                }
              }
            }
          }
        }
      }
    }
  }
  JOINT rButtock
  {
    OFFSET -8.77824 4.35084 1.2192
    CHANNELS 3 Zrotation Xrotation Yrotation
    JOINT rThigh
    {
      OFFSET 0 -1.70687 -2.19456
      CHANNELS 3 Zrotation Xrotation Yrotation
      JOINT rShin
      {
        OFFSET 0 -36.8199 0.73152
        CHANNELS 3 Zrotation Xrotation Yrotation
        JOINT rFoot
        {
          OFFSET 0.73152 -45.1104 -5.12064
          CHANNELS 3 Zrotation Xrotation Yrotation
          End Site
          {
            OFFSET -1.1221 -3.69964 12.103
          }
        }
      }
    }
  }
  JOINT lButtock
  {
    OFFSET 8.77824 4.35084 1.2192
    CHANNELS 3 Zrotation Xrotation Yrotation
    JOINT lThigh
    {
      OFFSET 0 -1.70687 -2.19456
      CHANNELS 3 Zrotation Xrotation Yrotation
      JOINT lShin
      {
        OFFSET 0 -36.8199 0.73152
        CHANNELS 3 Zrotation Xrotation Yrotation
        JOINT lFoot
        {
          OFFSET -0.73152 -45.1104 -5.12064
          CHANNELS 3 Zrotation Xrotation Yrotation
          End Site
          {
            OFFSET 1.1221 -3.69964 12.103
          }
        }
      }
    }
  }
}
MOTION
Frames:	7
Frame Time:	0.00833333
58.8439 85.5269 122.756 -1.77868 0.00595662 0.0336573 2.34099 -0.00222385 0.0637208 0.646591 0.00595038 0.111937 -7.75352e-014 2.38542e-015 1.49088e-016 -2.31013e-013 9.54166e-015 4.42606e-016 -0 0 0 -0 0 0 -3.83661e-014 3.33508e-016 2.98177e-016 -8.11435e-013 7.10655e-015 -1.98785e-016 -1.39731e-011 4.42216e-012 1.55847e-013 -1.60005e-010 -2.91545e-012 9.22361e-014 -3.77412e-010 3.26386e-012 5.62958e-013 -6.51789e-010 5.63594e-012 9.87562e-013 -3.77409e-010 3.26524e-012 5.47055e-013 7.73091 5.47488 0.417314 -3.77415e-010 3.26295e-012 5.69319e-013 2.90554 0.965183 0.102902 -3.77404e-010 3.26424e-012 5.65344e-013 10.2786 0.731801 0.0259123 -3.77417e-010 3.26683e-012 5.82042e-013 2.22167 -0.733487 -0.20892 -3.87649e-014 3.38167e-016 -9.93923e-017 -8.11927e-013 7.10655e-015 -1.39149e-015 -1.39852e-011 -3.94329e-012 1.49486e-013 -1.59973e-010 5.45314e-012 1.08139e-013 -3.77366e-010 3.27396e-012 5.69319e-013 -6.51683e-010 5.65821e-012 1.00506e-012 -3.77367e-010 3.27557e-012 5.91583e-013 -7.73091 5.47488 -0.417314 -3.77366e-010 3.27388e-012 5.78861e-013 -2.90554 0.965183 -0.102902 -3.77369e-010 3.27378e-012 5.76476e-013 -10.2786 0.731801 -0.0259123 -3.77361e-010 3.27677e-012 5.69319e-013 -2.22167 -0.733487 0.20892 -2.03217e-016 0 -3.88251e-019 2.21586 -8.02969 -0.231384 0.00606935 8.9736 0.15205 -0.478075 -0.951421 0.0349053 2.03217e-016 0 3.88251e-019 1.35243 -1.92788 -0.00536407 0.00846389 -2.07867 0.0694363 0.423479 3.99898 -0.127233 
59.8475 84.765 111.131 -2.24834 -0.0255146 -49.1718 3.05557 1.59903 0.984586 0.257069 -2.60651 0.400178 -1.79631 2.34833 -0.60421 2.73718 -2.38403 -1.08535 -0 0 0 -0 0 0 -7.77897e-014 1.82004e-014 7.77046e-015 21.4725 10.9064 -1.57127 -5.56816 -2.87261 8.29278 0.0495859 4.94378 0.6855 -8.32181e-011 -6.46485e-010 3.2803e-010 -1.39287e-010 -1.11662e-009 5.63873e-010 -8.32153e-011 -6.46484e-010 3.2802e-010 7.73091 5.47488 0.417314 -8.32207e-011 -6.46485e-010 3.28034e-010 2.90554 0.965183 0.102902 -8.3211e-011 -6.46484e-010 3.28033e-010 10.2786 0.731801 0.0259123 -8.32221e-011 -6.46482e-010 3.28047e-010 2.22167 -0.733487 -0.20892 -7.81193e-014 1.82052e-014 7.43191e-015 -21.5274 7.7656 2.27759 5.26846 -2.64781 -7.93436 -0.0274731 3.68257 -0.513712 -2.03783e-011 4.87763e-010 3.66462e-010 -3.11755e-011 8.45163e-010 6.30543e-010 -2.0379e-011 4.87766e-010 3.66481e-010 -7.73091 5.47488 -0.417314 -2.03773e-011 4.87764e-010 3.66471e-010 -2.90554 0.965183 -0.102902 -2.03814e-011 4.87764e-010 3.66467e-010 -10.2786 0.731801 -0.0259123 -2.03733e-011 4.87767e-010 3.66459e-010 -2.22167 -0.733487 0.20892 -2.03217e-016 0 -3.88251e-019 3.77376 -7.98136 3.85433 0.0300181 12.4237 0.227719 -1.32788 -4.19324 -8.04572 2.03217e-016 0 3.88251e-019 1.2201 -4.08863 -5.79066 -0.00632185 4.14836 -0.0933618 1.14384 0.422801 6.74241 
59.8516 84.7629 111.131 -2.77464 0.0180283 -101.184 3.75501 3.28419 1.95814 -0.126276 -5.3671 0.707105 -3.63663 4.82972 -1.24247 5.52545 -4.88388 -2.23636 -0 0 0 -0 0 0 -1.20523e-013 3.71677e-014 1.62817e-014 44.8886 22.3996 -3.43851 -10.553 -5.70274 17.1155 -0.0285581 10.1788 1.4289 2.24081e-010 -1.34664e-009 6.82264e-010 3.96208e-010 -2.32617e-009 1.17291e-009 2.24083e-010 -1.34664e-009 6.82259e-010 7.73091 5.47488 0.417314 2.24079e-010 -1.34664e-009 6.82265e-010 2.90554 0.965183 0.102902 2.24087e-010 -1.34664e-009 6.82266e-010 10.2786 0.731801 0.0259123 2.24079e-010 -1.34664e-009 6.82278e-010 2.22167 -0.733487 -0.20892 -1.20779e-013 3.71728e-014 1.60084e-014 -44.9948 15.9479 4.8252 10.0462 -5.27577 -16.3726 0.0159939 7.5957 -1.06685 3.58421e-010 1.00723e-009 7.60208e-010 6.27312e-010 1.74532e-009 1.30803e-009 3.58421e-010 1.00724e-009 7.60223e-010 -7.73091 5.47488 -0.417314 3.58423e-010 1.00723e-009 7.60216e-010 -2.90554 0.965183 -0.102902 3.58417e-010 1.00723e-009 7.60211e-010 -10.2786 0.731801 -0.0259123 3.58425e-010 1.00724e-009 7.60202e-010 -2.22167 -0.733487 0.20892 -2.03217e-016 0 -3.88251e-019 5.41321 -7.87561 8.17676 0.044918 16.0675 0.310723 -3.21417 -7.38859 -16.6842 2.03217e-016 0 3.88251e-019 0.602622 -6.26379 -11.9562 0.0170059 10.7272 -0.269759 2.83242 -3.25387 14.0398 
59.8566 84.7708 111.113 -3.16822 0.108889 -147.583 4.32991 4.79639 2.8351 -0.442436 -7.83049 0.9846 -5.2394 7.04183 -1.82488 7.93893 -7.14178 -3.2787 -0 0 0 -0 0 0 -1.56637e-013 5.39341e-014 2.2715e-014 66.4946 32.6112 -5.4974 -14.2773 -7.89719 25.1011 -0.216446 14.8227 2.11941 5.0517e-010 -1.94598e-009 9.82965e-010 8.85719e-010 -3.36112e-009 1.68964e-009 5.05171e-010 -1.94598e-009 9.82965e-010 7.73091 5.47488 0.417314 5.05167e-010 -1.94598e-009 9.82964e-010 2.90554 0.965183 0.102902 5.05175e-010 -1.94598e-009 9.82967e-010 10.2786 0.731801 0.0259123 5.05169e-010 -1.94598e-009 9.82977e-010 2.22167 -0.733487 -0.20892 -1.56828e-013 5.39393e-014 2.24945e-014 -66.5671 23.1429 7.3657 13.6607 -7.3354 -23.986 0.118843 11.0441 -1.56698 6.93598e-010 1.45674e-009 1.09825e-009 1.20984e-009 2.52417e-009 1.88962e-009 6.93597e-010 1.45675e-009 1.09826e-009 -7.73091 5.47488 -0.417314 6.936e-010 1.45675e-009 1.09825e-009 -2.90554 0.965183 -0.102902 6.93594e-010 1.45675e-009 1.09825e-009 -10.2786 0.731801 -0.0259123 6.93602e-010 1.45675e-009 1.09824e-009 -2.22167 -0.733487 0.20892 -2.03217e-016 0 -3.88251e-019 6.86523 -7.76624 12.0209 0.0488393 19.3237 0.388679 -5.71163 -9.84684 -24.5265 2.03217e-016 0 3.88251e-019 -0.340967 -8.08613 -17.4964 0.0735515 16.602 -0.436322 5.11329 -6.29415 20.6104 
59.8296 84.7677 111.133 -3.39217 0.120346 -179.946 4.70125 5.88093 3.46246 -0.646954 -9.55172 1.18114 -6.35259 8.58364 -2.25618 9.60402 -8.80432 -4.0287 -0 0 0 -0 0 0 -1.76204e-013 6.51983e-014 2.39536e-014 82.0241 39.7203 -7.30604 -16.5226 -9.18201 30.7839 -0.414478 17.9973 2.61687 7.20733e-010 -2.29331e-009 1.14984e-009 1.26027e-009 -3.95958e-009 1.97562e-009 7.20733e-010 -2.29331e-009 1.14984e-009 7.73091 5.47488 0.417314 7.2073e-010 -2.2933e-009 1.14983e-009 2.90554 0.965183 0.102902 7.20737e-010 -2.2933e-009 1.14984e-009 10.2786 0.731801 0.0259123 7.20732e-010 -2.2933e-009 1.14985e-009 2.22167 -0.733487 -0.20892 -1.76353e-013 6.52033e-014 2.37548e-014 -81.9526 28.0153 9.37997 15.8533 -8.55159 -29.3635 0.223161 13.3343 -1.90895 9.19718e-010 1.73136e-009 1.29702e-009 1.60247e-009 2.99978e-009 2.23147e-009 9.19717e-010 1.73136e-009 1.29703e-009 -7.73091 5.47488 -0.417314 9.1972e-010 1.73136e-009 1.29702e-009 -2.90554 0.965183 -0.102902 9.19714e-010 1.73136e-009 1.29702e-009 -10.2786 0.731801 -0.0259123 9.19721e-010 1.73136e-009 1.29701e-009 -2.22167 -0.733487 0.20892 -2.03217e-016 0 -3.88251e-019 7.87658 -7.72963 14.6747 0.0461785 21.6108 0.446355 -7.86501 -11.2417 -30.0835 2.03217e-016 0 3.88251e-019 -1.20356 -9.31839 -21.3582 0.134749 20.7171 -0.560353 7.09612 -8.20683 25.1935 
59.8123 84.7554 111.206 -3.501 0.0467395 167.342 4.83348 6.36875 3.73946 -0.717654 -10.2346 1.25959 -6.83714 9.18442 -2.47043 10.3125 -9.62998 -4.35885 -0 0 0 -0 0 0 -1.73267e-013 6.88339e-014 1.66008e-014 88.0606 42.5861 -8.09245 -17.3731 -9.66043 33.1365 -0.499864 19.0946 2.79548 8.57231e-010 -2.26801e-009 1.12145e-009 1.4956e-009 -3.91213e-009 1.92466e-009 8.57231e-010 -2.26801e-009 1.12145e-009 7.73091 5.47488 0.417314 8.57228e-010 -2.268e-009 1.12145e-009 2.90554 0.965183 0.102902 8.57235e-010 -2.268e-009 1.12145e-009 10.2786 0.731801 0.0259123 8.57231e-010 -2.268e-009 1.12146e-009 2.22167 -0.733487 -0.20892 -1.73405e-013 6.88383e-014 1.6371e-014 -87.9172 29.7656 10.2481 16.6578 -8.98119 -31.5154 0.261054 13.9666 -2.00563 1.01297e-009 1.76759e-009 1.30314e-009 1.7635e-009 3.0619e-009 2.24149e-009 1.01297e-009 1.76759e-009 1.30314e-009 -7.73091 5.47488 -0.417314 1.01297e-009 1.76759e-009 1.30314e-009 -2.90554 0.965183 -0.102902 1.01297e-009 1.76759e-009 1.30313e-009 -10.2786 0.731801 -0.0259123 1.01297e-009 1.76759e-009 1.30312e-009 -2.22167 -0.733487 0.20892 -2.03217e-016 0 -3.88251e-019 8.2838 -7.8329 15.6678 0.044276 22.5422 0.471088 -8.7737 -11.6624 -32.2873 2.03217e-016 0 3.88251e-019 -1.57062 -9.91815 -22.8026 0.164051 22.3659 -0.609809 7.90499 -8.88825 26.8551 
59.8285 84.7439 111.288 -3.52083 -0.0686836 168.665 4.80709 6.43144 3.76419 -0.698982 -10.1759 1.25217 -6.88425 9.11393 -2.52698 10.3596 -9.86051 -4.38406 -0 0 0 -0 0 0 -1.54224e-013 6.70169e-014 3.17434e-015 87.0045 42.4517 -7.90066 -17.3734 -9.70018 33.0852 -0.475866 18.711 2.73408 9.36651e-010 -1.9775e-009 9.53969e-010 1.63045e-009 -3.40498e-009 1.63369e-009 9.36651e-010 -1.97749e-009 9.5397e-010 7.73091 5.47488 0.417314 9.36647e-010 -1.97749e-009 9.53967e-010 2.90554 0.965183 0.102902 9.36655e-010 -1.97749e-009 9.53969e-010 10.2786 0.731801 0.0259123 9.36653e-010 -1.97749e-009 9.53976e-010 2.22167 -0.733487 -0.20892 -1.54375e-013 6.70205e-014 2.87617e-015 -86.9512 29.3212 10.1747 16.6 -8.96284 -31.342 0.238564 13.417 -1.92316 1.01038e-009 1.63324e-009 1.17153e-009 1.75748e-009 2.82815e-009 2.01433e-009 1.01037e-009 1.63324e-009 1.17154e-009 -7.73091 5.47488 -0.417314 1.01038e-009 1.63324e-009 1.17153e-009 -2.90554 0.965183 -0.102902 1.01037e-009 1.63324e-009 1.17153e-009 -10.2786 0.731801 -0.0259123 1.01038e-009 1.63324e-009 1.17152e-009 -2.22167 -0.733487 0.20892 -2.03217e-016 0 -3.88251e-019 8.25833 -8.04503 15.4748 0.0454461 22.5053 0.471029 -8.63729 -11.5349 -32.0648 2.03217e-016 0 3.88251e-019 -1.49169 -10.1224 -22.5026 0.160795 22.2533 -0.601278 7.71421 -8.78991 26.3966 
